<svg width="230" height="91" viewBox="0 0 230 91" fill="none" xmlns="http://www.w3.org/2000/svg">
<path d="M137.011 24.1265C131.223 18.3353 124.351 13.7413 116.788 10.6072C109.225 7.47307 101.12 5.85999 92.9335 5.85999C84.7474 5.85999 76.6417 7.47307 69.0787 10.6072C61.5159 13.7413 54.644 18.3353 48.8556 24.1265L92.9335 68.2251L137.011 24.1265Z" fill="#F7E9FA"/>
<path d="M92.9888 68.2887C98.7772 74.0799 105.649 78.6736 113.212 81.8077C120.775 84.9419 128.881 86.555 137.067 86.555C145.252 86.555 153.359 84.9419 160.922 81.8077C168.484 78.6736 175.357 74.0799 181.145 68.2887L137.067 24.1898L92.9888 68.2887Z" fill="#E8E9F7"/>
<path d="M92.8799 68.2789C87.0915 74.0701 80.2196 78.6638 72.6568 81.798C65.0938 84.9321 56.9881 86.5452 48.802 86.5452C40.6159 86.5452 32.5102 84.9321 24.9472 81.798C17.3845 78.6638 10.5125 74.0701 4.72412 68.2789L48.802 24.1801L92.8799 68.2789Z" fill="#191EA0"/>
<path d="M137.12 24.1361C142.908 18.345 149.781 13.7512 157.343 10.6171C164.906 7.48296 173.013 5.86987 181.198 5.86987C189.385 5.86987 197.49 7.48296 205.052 10.6171C212.615 13.7512 219.488 18.345 225.276 24.1361L181.198 68.235L137.12 24.1361Z" fill="#9E1EB8"/>
</svg>
